<?xml version="1.0" encoding="iso-8859-1"?>
<!-- Generator: Adobe Illustrator 19.0.0, SVG Export Plug-In . SVG Version: 6.00 Build 0)  -->
<svg version="1.1" id="Capa_1" xmlns="http://www.w3.org/2000/svg" xmlns:xlink="http://www.w3.org/1999/xlink" x="0px" y="0px"
	 viewBox="0 0 511.766 511.766" style="enable-background:new 0 0 511.766 511.766;" xml:space="preserve">
<g>
	<polygon style="fill:#7F4545;" points="507.768,143.934 443.797,143.934 283.87,143.856 115.946,143.774 3.998,143.774 
		11.596,151.931 75.965,215.902 11.596,279.872 3.998,287.868 35.745,287.868 115.946,287.868 443.797,287.868 475.861,287.868 
		507.768,287.868 500.013,279.872 435.644,215.902 500.013,151.931 	"/>
	<polygon style="fill:#7F4545;" points="507.768,143.934 443.797,143.934 283.87,143.856 115.946,143.774 3.998,143.774 
		11.596,151.931 75.965,215.902 11.596,279.872 3.998,287.868 35.745,287.868 115.946,287.868 443.797,287.868 475.861,287.868 
		507.768,287.868 500.013,279.872 435.644,215.902 500.013,151.931 	"/>
</g>
<polygon style="fill:#FFD2A6;" points="435.8,215.902 75.965,215.902 3.998,287.868 27.987,287.868 83.883,231.972 427.882,231.972 
	483.779,287.868 507.768,287.868 "/>
<polygon style="fill:#F2C397;" points="435.8,215.741 75.965,215.741 3.998,143.774 27.987,143.774 83.883,199.67 427.882,199.67 
	483.779,143.774 507.768,143.774 "/>
<path style="fill:#FFCE54;" d="M275.796,191.912h-39.982c-4.396,0-7.996,3.6-7.996,7.996v24.067h55.975v-24.067
	C283.792,195.512,280.193,191.912,275.796,191.912z"/>
<g style="opacity:0.5;">
	<path style="fill:#FFFFFF;" d="M243.826,191.912h-7.997c-4.396,0-7.996,3.6-7.996,7.996v24.067h7.996v-24.067
		C235.829,195.512,239.429,191.912,243.826,191.912z"/>
</g>
<g style="opacity:0.2;">
	<path d="M267.783,191.912h7.997c4.396,0,7.996,3.6,7.996,7.996v24.067h-7.996v-24.067
		C275.78,195.512,272.18,191.912,267.783,191.912z"/>
</g>
<path style="fill:#F6BB42;" d="M243.888,207.904h-39.982c-4.396,0-7.996,3.601-7.996,7.997v24.066h55.975v-24.066
	C251.885,211.505,248.284,207.904,243.888,207.904z"/>
<g style="opacity:0.5;">
	<path style="fill:#FFFFFF;" d="M211.919,207.944h-7.997c-4.396,0-7.996,3.601-7.996,7.997v24.066h7.996v-24.066
		C203.922,211.544,207.522,207.944,211.919,207.944z"/>
</g>
<g style="opacity:0.2;">
	<path d="M235.876,207.944h7.997c4.396,0,7.997,3.601,7.997,7.997v24.066h-7.997v-24.066
		C243.873,211.544,240.273,207.944,235.876,207.944z"/>
</g>
<path style="fill:#F6BB42;" d="M307.859,207.904h-39.981c-4.396,0-7.996,3.601-7.996,7.997v24.066h55.975v-24.066
	C315.856,211.505,312.255,207.904,307.859,207.904z"/>
<g style="opacity:0.5;">
	<path style="fill:#FFFFFF;" d="M275.89,207.944h-7.997c-4.396,0-7.996,3.601-7.996,7.997v24.066h7.996v-24.066
		C267.893,211.544,271.493,207.944,275.89,207.944z"/>
</g>
<g style="opacity:0.2;">
	<path d="M299.847,207.944h7.996c4.396,0,7.997,3.601,7.997,7.997v24.066h-7.997v-24.066
		C307.843,211.544,304.243,207.944,299.847,207.944z"/>
</g>
<g>
	<path style="fill:#FFCE54;" d="M211.903,223.737h-39.982c-4.396,0-7.996,3.6-7.996,7.996V255.8H219.9v-24.067
		C219.9,227.337,216.299,223.737,211.903,223.737z"/>
	<path style="fill:#FFCE54;" d="M275.874,223.737h-39.982c-4.396,0-7.996,3.6-7.996,7.996V255.8h55.975v-24.067
		C283.87,227.337,280.27,223.737,275.874,223.737z"/>
</g>
<g style="opacity:0.5;">
	<path style="fill:#FFFFFF;" d="M243.904,223.859h-7.997c-4.396,0-7.996,3.6-7.996,7.996v24.067h7.996v-24.067
		C235.907,227.458,239.508,223.859,243.904,223.859z"/>
</g>
<g style="opacity:0.2;">
	<path d="M267.862,223.859h7.997c4.396,0,7.996,3.6,7.996,7.996v24.067h-7.996v-24.067
		C275.859,227.458,272.258,223.859,267.862,223.859z"/>
</g>
<path style="fill:#FFCE54;" d="M339.689,223.737h-39.982c-4.396,0-7.996,3.6-7.996,7.996V255.8h55.975v-24.067
	C347.685,227.337,344.085,223.737,339.689,223.737z"/>
<g style="opacity:0.5;">
	<path style="fill:#FFFFFF;" d="M307.874,223.859h-7.996c-4.396,0-7.996,3.6-7.996,7.996v24.067h7.996v-24.067
		C299.878,227.458,303.478,223.859,307.874,223.859z"/>
</g>
<g style="opacity:0.2;">
	<path d="M331.832,223.859h7.997c4.396,0,7.996,3.6,7.996,7.996v24.067h-7.996v-24.067
		C339.829,227.458,336.229,223.859,331.832,223.859z"/>
</g>
<g>
	<path style="fill:#F6BB42;" d="M307.859,239.769h-39.981c-4.396,0-7.996,3.601-7.996,7.997v24.062h55.975v-24.062
		C315.856,243.369,312.255,239.769,307.859,239.769z"/>
	<path style="fill:#F6BB42;" d="M371.829,239.769h-39.981c-4.396,0-7.996,3.601-7.996,7.997v24.062h55.975v-24.062
		C379.826,243.369,376.226,239.769,371.829,239.769z"/>
</g>
<g style="opacity:0.5;">
	<path style="fill:#FFFFFF;" d="M179.933,223.859h-7.997c-4.396,0-7.996,3.6-7.996,7.996v24.067h7.996v-24.067
		C171.937,227.458,175.537,223.859,179.933,223.859z"/>
</g>
<g style="opacity:0.2;">
	<path d="M203.891,223.859h7.997c4.396,0,7.997,3.6,7.997,7.996v24.067h-7.997v-24.067
		C211.887,227.458,208.287,223.859,203.891,223.859z"/>
</g>
<g>
	<path style="fill:#F6BB42;" d="M243.888,239.769h-39.982c-4.396,0-7.996,3.601-7.996,7.997v24.062h55.975v-24.062
		C251.885,243.369,248.284,239.769,243.888,239.769z"/>
	<path style="fill:#F6BB42;" d="M179.317,239.769h-39.982c-4.396,0-7.997,3.601-7.997,7.997v24.062h55.975v-24.062
		C187.313,243.369,183.713,239.769,179.317,239.769z"/>
</g>
<g style="opacity:0.5;">
	<path style="fill:#FFFFFF;" d="M147.347,239.851h-7.997c-4.396,0-7.997,3.601-7.997,7.997v24.066h7.997v-24.066
		C139.35,243.451,142.95,239.851,147.347,239.851z"/>
</g>
<g style="opacity:0.2;">
	<path d="M171.304,239.851h7.997c4.396,0,7.996,3.601,7.996,7.997v24.066h-7.996v-24.066
		C179.301,243.451,175.7,239.851,171.304,239.851z"/>
</g>
<g style="opacity:0.5;">
	<path style="fill:#FFFFFF;" d="M211.919,239.851h-7.997c-4.396,0-7.996,3.601-7.996,7.997v24.066h7.996v-24.066
		C203.922,243.451,207.522,239.851,211.919,239.851z"/>
</g>
<g style="opacity:0.2;">
	<path d="M235.876,239.851h7.997c4.396,0,7.997,3.601,7.997,7.997v24.066h-7.997v-24.066
		C243.873,243.451,240.273,239.851,235.876,239.851z"/>
</g>
<g style="opacity:0.5;">
	<path style="fill:#FFFFFF;" d="M275.89,239.851h-7.997c-4.396,0-7.996,3.601-7.996,7.997v24.066h7.996v-24.066
		C267.893,243.451,271.493,239.851,275.89,239.851z"/>
</g>
<g style="opacity:0.2;">
	<path d="M299.847,239.851h7.996c4.396,0,7.997,3.601,7.997,7.997v24.066h-7.997v-24.066
		C307.843,243.451,304.243,239.851,299.847,239.851z"/>
</g>
<g style="opacity:0.5;">
	<path style="fill:#FFFFFF;" d="M339.861,239.851h-7.997c-4.396,0-7.996,3.601-7.996,7.997v24.066h7.996v-24.066
		C331.863,243.451,335.464,239.851,339.861,239.851z"/>
</g>
<g style="opacity:0.2;">
	<path d="M363.818,239.851h7.996c4.396,0,7.997,3.601,7.997,7.997v24.066h-7.997v-24.066
		C371.814,243.451,368.214,239.851,363.818,239.851z"/>
</g>
<path style="fill:#FFCE54;" d="M147.932,255.801H107.95c-4.396,0-7.996,3.6-7.996,7.996v24.071h55.975v-24.071
	C155.929,259.401,152.328,255.801,147.932,255.801z"/>
<g style="opacity:0.5;">
	<path style="fill:#FFFFFF;" d="M115.962,255.844h-7.996c-4.396,0-7.996,3.6-7.996,7.996v24.067h7.996V263.84
		C107.966,259.444,111.566,255.844,115.962,255.844z"/>
</g>
<g style="opacity:0.2;">
	<path d="M139.92,255.844h7.997c4.396,0,7.997,3.6,7.997,7.996v24.067h-7.997V263.84
		C147.917,259.444,144.317,255.844,139.92,255.844z"/>
</g>
<path style="fill:#FFCE54;" d="M211.903,255.801h-39.982c-4.396,0-7.996,3.6-7.996,7.996v24.071H219.9v-24.071
	C219.9,259.401,216.299,255.801,211.903,255.801z"/>
<g style="opacity:0.5;">
	<path style="fill:#FFFFFF;" d="M179.933,255.844h-7.997c-4.396,0-7.996,3.6-7.996,7.996v24.067h7.996V263.84
		C171.937,259.444,175.537,255.844,179.933,255.844z"/>
</g>
<g style="opacity:0.2;">
	<path d="M203.891,255.844h7.997c4.396,0,7.997,3.6,7.997,7.996v24.067h-7.997V263.84
		C211.887,259.444,208.287,255.844,203.891,255.844z"/>
</g>
<path style="fill:#FFCE54;" d="M275.874,255.801h-39.982c-4.396,0-7.996,3.6-7.996,7.996v24.071h55.975v-24.071
	C283.87,259.401,280.27,255.801,275.874,255.801z"/>
<g style="opacity:0.5;">
	<path style="fill:#FFFFFF;" d="M243.904,255.844h-7.997c-4.396,0-7.996,3.6-7.996,7.996v24.067h7.996V263.84
		C235.907,259.444,239.508,255.844,243.904,255.844z"/>
</g>
<g style="opacity:0.2;">
	<path d="M267.862,255.844h7.997c4.396,0,7.996,3.6,7.996,7.996v24.067h-7.996V263.84
		C275.859,259.444,272.258,255.844,267.862,255.844z"/>
</g>
<path style="fill:#FFCE54;" d="M339.845,255.801h-39.982c-4.396,0-7.996,3.6-7.996,7.996v24.071h55.975v-24.071
	C347.841,259.401,344.24,255.801,339.845,255.801z"/>
<g style="opacity:0.5;">
	<path style="fill:#FFFFFF;" d="M307.874,255.844h-7.996c-4.396,0-7.996,3.6-7.996,7.996v24.067h7.996V263.84
		C299.878,259.444,303.478,255.844,307.874,255.844z"/>
</g>
<g style="opacity:0.2;">
	<path d="M331.832,255.844h7.997c4.396,0,7.996,3.6,7.996,7.996v24.067h-7.996V263.84
		C339.829,259.444,336.229,255.844,331.832,255.844z"/>
</g>
<path style="fill:#FFCE54;" d="M403.816,255.801h-39.983c-4.396,0-7.996,3.6-7.996,7.996v24.071h55.975v-24.071
	C411.812,259.401,408.212,255.801,403.816,255.801z"/>
<g style="opacity:0.5;">
	<path style="fill:#FFFFFF;" d="M371.845,255.844h-7.996c-4.396,0-7.996,3.6-7.996,7.996v24.067h7.996V263.84
		C363.849,259.444,367.448,255.844,371.845,255.844z"/>
</g>
<g style="opacity:0.2;">
	<path d="M395.803,255.844h7.997c4.396,0,7.996,3.6,7.996,7.996v24.067H403.8V263.84C403.8,259.444,400.199,255.844,395.803,255.844
		z"/>
</g>
<path style="fill:#F6BB42;" d="M435.8,271.836h-39.981c-4.396,0-7.996,3.601-7.996,7.997v0.039h-7.996v-0.039
	c0-4.396-3.601-7.997-7.997-7.997h-39.981c-4.396,0-7.996,3.601-7.996,7.997v0.039h-7.996v-0.039c0-4.396-3.601-7.997-7.997-7.997
	h-39.981c-4.396,0-7.996,3.601-7.996,7.997v0.039h-7.996v-0.039c0-4.396-3.601-7.997-7.997-7.997h-39.982
	c-4.396,0-7.996,3.601-7.996,7.997v0.039h-7.996v-0.039c0-4.396-3.601-7.997-7.997-7.997h-39.982c-4.396,0-7.996,3.601-7.996,7.997
	v0.039h-7.997v-0.039c0-4.396-3.6-7.997-7.997-7.997H75.965c-4.396,0-7.996,3.601-7.996,7.997v16.07h55.974v-0.039h7.997v0.039
	h55.975v-0.039h7.996v0.039h55.975v-0.039h7.996v0.039h55.975v-0.039h7.996v0.039h55.975v-0.039h7.996v0.039h55.975v-16.07
	C443.797,275.437,440.196,271.836,435.8,271.836z"/>
<g style="opacity:0.5;">
	<path style="fill:#FFFFFF;" d="M83.961,271.836h-7.996c-4.396,0-7.996,3.601-7.996,7.997v16.07h7.996v-16.07
		C75.965,275.437,79.565,271.836,83.961,271.836z"/>
</g>
<g style="opacity:0.5;">
	<path style="fill:#FFFFFF;" d="M147.932,271.836h-7.997c-4.396,0-7.996,3.601-7.996,7.997v16.07h7.996v-16.07
		C139.936,275.437,143.536,271.836,147.932,271.836z"/>
</g>
<g style="opacity:0.5;">
	<path style="fill:#FFFFFF;" d="M211.903,271.836h-7.997c-4.396,0-7.996,3.601-7.996,7.997v16.07h7.996v-16.07
		C203.906,275.437,207.507,271.836,211.903,271.836z"/>
</g>
<g style="opacity:0.5;">
	<path style="fill:#FFFFFF;" d="M275.874,271.836h-7.997c-4.396,0-7.996,3.601-7.996,7.997v16.07h7.996v-16.07
		C267.877,275.437,271.478,271.836,275.874,271.836z"/>
</g>
<g style="opacity:0.5;">
	<path style="fill:#FFFFFF;" d="M339.845,271.836h-7.997c-4.396,0-7.996,3.601-7.996,7.997v16.07h7.996v-16.07
		C331.848,275.437,335.448,271.836,339.845,271.836z"/>
</g>
<g style="opacity:0.2;">
	<path d="M427.812,271.836h7.996c4.396,0,7.997,3.601,7.997,7.997v16.07h-7.997v-16.07
		C435.808,275.437,432.208,271.836,427.812,271.836z"/>
</g>
<g style="opacity:0.2;">
	<path d="M363.833,271.836h7.996c4.396,0,7.997,3.601,7.997,7.997v16.07h-7.997v-16.07
		C371.829,275.437,368.23,271.836,363.833,271.836z"/>
</g>
<g style="opacity:0.2;">
	<path d="M299.855,271.836h7.996c4.396,0,7.997,3.601,7.997,7.997v16.07h-7.997v-16.07
		C307.851,275.437,304.251,271.836,299.855,271.836z"/>
</g>
<g style="opacity:0.2;">
	<path d="M235.876,271.836h7.997c4.396,0,7.997,3.601,7.997,7.997v16.07h-7.997v-16.07
		C243.873,275.437,240.273,271.836,235.876,271.836z"/>
</g>
<g style="opacity:0.2;">
	<path d="M171.898,271.836h7.997c4.396,0,7.997,3.601,7.997,7.997v16.07h-7.997v-16.07
		C179.894,275.437,176.294,271.836,171.898,271.836z"/>
</g>
<g style="opacity:0.2;">
	<path d="M107.919,271.836h7.997c4.396,0,7.997,3.601,7.997,7.997v16.07h-7.997v-16.07
		C115.916,275.437,112.316,271.836,107.919,271.836z"/>
</g>
<g style="opacity:0.5;">
	<path style="fill:#FFFFFF;" d="M403.816,271.836h-7.997c-4.396,0-7.996,3.601-7.996,7.997v16.07h7.996v-16.07
		C395.819,275.437,399.419,271.836,403.816,271.836z"/>
</g>
<path style="fill:#965353;" d="M500.013,287.868h-24.152h-32.063H115.946H35.745H11.596H3.998v183.916
	c0,8.871,7.118,15.992,15.992,15.992h95.956h327.851h47.978c8.879,0,15.993-7.121,15.993-15.992V287.868H500.013z M91.958,455.791
	c-4.396,0-7.997-3.6-7.997-7.996s3.601-7.996,7.997-7.996c4.396,0,7.997,3.6,7.997,7.996S96.354,455.791,91.958,455.791z
	 M91.958,415.81c-4.396,0-7.997-3.6-7.997-7.996s3.601-7.997,7.997-7.997c4.396,0,7.997,3.601,7.997,7.997
	S96.354,415.81,91.958,415.81z M91.958,375.828c-4.396,0-7.997-3.6-7.997-7.996s3.601-7.997,7.997-7.997
	c4.396,0,7.997,3.601,7.997,7.997S96.354,375.828,91.958,375.828z M91.958,335.846c-4.396,0-7.997-3.6-7.997-7.996
	s3.601-7.996,7.997-7.996c4.396,0,7.997,3.6,7.997,7.996S96.354,335.846,91.958,335.846z M291.866,415.81h-71.967v-55.975h71.967
	V415.81z M419.808,455.791c-4.475,0-7.996-3.6-7.996-7.996s3.521-7.996,7.996-7.996c4.396,0,7.996,3.6,7.996,7.996
	S424.204,455.791,419.808,455.791z M419.808,415.81c-4.475,0-7.996-3.6-7.996-7.996s3.521-7.997,7.996-7.997
	c4.396,0,7.996,3.601,7.996,7.997S424.204,415.81,419.808,415.81z M419.808,375.828c-4.475,0-7.996-3.6-7.996-7.996
	s3.521-7.997,7.996-7.997c4.396,0,7.996,3.601,7.996,7.997S424.204,375.828,419.808,375.828z M419.808,335.846
	c-4.475,0-7.996-3.6-7.996-7.996s3.521-7.996,7.996-7.996c4.396,0,7.996,3.6,7.996,7.996S424.204,335.846,419.808,335.846z"/>
<g style="opacity:0.2;">
	<path style="fill:#FFFFFF;" d="M19.99,471.784V287.868h-8.395H3.998v183.916c0,8.871,7.118,15.992,15.992,15.992h15.993
		C27.109,487.777,19.99,480.655,19.99,471.784z"/>
</g>
<g style="opacity:0.2;">
	<path d="M491.775,471.784V287.868h8.395h7.599v183.916c0,8.871-7.122,15.992-15.993,15.992h-15.992
		C484.654,487.777,491.775,480.655,491.775,471.784z"/>
</g>
<g>
	<rect x="227.893" y="287.873" style="fill:#AAB2BD;" width="55.896" height="39.981"/>
	<rect x="68.043" y="287.873" style="fill:#AAB2BD;" width="47.899" height="199.91"/>
	<rect x="395.863" y="287.873" style="fill:#AAB2BD;" width="47.9" height="199.91"/>
	<rect x="227.893" y="47.973" style="fill:#AAB2BD;" width="55.896" height="39.982"/>
</g>
<path style="fill:#965353;" d="M467.786,23.989h-23.989H283.87H115.946H43.98c-22.068,0-39.981,17.913-39.981,39.981v79.803h7.598
	h104.351l167.924,0.082l159.927,0.078h56.216h7.755v-0.16V63.971C507.768,41.903,489.854,23.989,467.786,23.989z M91.958,111.948
	c-4.396,0-7.997-3.6-7.997-7.996s3.601-7.996,7.997-7.996c4.396,0,7.997,3.6,7.997,7.996S96.354,111.948,91.958,111.948z
	 M91.958,71.967c-4.396,0-7.997-3.6-7.997-7.996s3.601-7.996,7.997-7.996c4.396,0,7.997,3.6,7.997,7.996
	S96.354,71.967,91.958,71.967z M419.808,111.948c-4.396,0-7.996-3.6-7.996-7.996s3.6-7.996,7.996-7.996s7.996,3.6,7.996,7.996
	S424.204,111.948,419.808,111.948z M419.808,71.967c-4.396,0-7.996-3.6-7.996-7.996s3.6-7.996,7.996-7.996s7.996,3.6,7.996,7.996
	S424.204,71.967,419.808,71.967z"/>
<g style="opacity:0.2;">
	<path style="fill:#FFFFFF;" d="M59.972,23.989H43.98c-22.068,0-39.981,17.913-39.981,39.981v79.803h7.598h8.395V63.971
		C19.99,41.903,37.904,23.989,59.972,23.989z"/>
</g>
<g style="opacity:0.2;">
	<path d="M451.754,23.993h15.993c22.067,0,39.981,17.913,39.981,39.981v79.803h-7.599h-8.395V63.975
		C491.736,41.906,473.822,23.993,451.754,23.993z"/>
</g>
<g style="opacity:0.2;">
	<polygon points="3.998,143.774 11.596,151.931 19.483,159.767 491.97,159.927 500.013,151.931 507.768,143.934 507.612,143.934 
		507.768,143.774 	"/>
</g>
<g>
	<path style="fill:#CCD1D9;" d="M91.958,439.799c4.396,0,7.997,3.6,7.997,7.996s-3.6,7.996-7.997,7.996
		c-4.396,0-7.997-3.6-7.997-7.996S87.562,439.799,91.958,439.799z"/>
	<path style="fill:#CCD1D9;" d="M91.958,399.817c4.396,0,7.997,3.601,7.997,7.997s-3.6,7.996-7.997,7.996
		c-4.396,0-7.997-3.6-7.997-7.996S87.562,399.817,91.958,399.817z"/>
	<path style="fill:#CCD1D9;" d="M91.958,359.835c4.396,0,7.997,3.601,7.997,7.997s-3.6,7.996-7.997,7.996
		c-4.396,0-7.997-3.6-7.997-7.996S87.562,359.835,91.958,359.835z"/>
	<path style="fill:#CCD1D9;" d="M91.958,319.854c4.396,0,7.997,3.6,7.997,7.996s-3.6,7.996-7.997,7.996
		c-4.396,0-7.997-3.6-7.997-7.996S87.562,319.854,91.958,319.854z"/>
</g>
<g style="opacity:0.7;">
	<path style="fill:#FFFFFF;" d="M91.958,327.85c0-2.912,1.656-5.356,3.999-6.762c-1.195-0.711-2.515-1.234-3.999-1.234
		c-4.396,0-7.997,3.6-7.997,7.996s3.601,7.996,7.997,7.996c1.484,0,2.803-0.522,3.999-1.233
		C93.613,333.207,91.958,330.763,91.958,327.85z"/>
</g>
<g style="opacity:0.7;">
	<path style="fill:#FFFFFF;" d="M91.958,367.832c0-2.913,1.656-5.357,3.999-6.763c-1.195-0.711-2.515-1.234-3.999-1.234
		c-4.396,0-7.997,3.601-7.997,7.997s3.601,7.996,7.997,7.996c1.484,0,2.803-0.523,3.999-1.234
		C93.613,373.189,91.958,370.744,91.958,367.832z"/>
</g>
<g style="opacity:0.7;">
	<path style="fill:#FFFFFF;" d="M91.958,407.814c0-2.913,1.656-5.357,3.999-6.763c-1.195-0.711-2.515-1.234-3.999-1.234
		c-4.396,0-7.997,3.601-7.997,7.997s3.601,7.996,7.997,7.996c1.484,0,2.803-0.523,3.999-1.233
		C93.613,413.17,91.958,410.727,91.958,407.814z"/>
</g>
<g style="opacity:0.7;">
	<path style="fill:#FFFFFF;" d="M91.958,447.795c0-2.912,1.656-5.357,3.999-6.763c-1.195-0.71-2.515-1.233-3.999-1.233
		c-4.396,0-7.997,3.6-7.997,7.996s3.601,7.996,7.997,7.996c1.484,0,2.803-0.523,3.999-1.233
		C93.613,453.153,91.958,450.708,91.958,447.795z"/>
</g>
<g>
	<path style="fill:#CCD1D9;" d="M419.808,319.854c4.396,0,7.996,3.6,7.996,7.996s-3.6,7.996-7.996,7.996
		c-4.475,0-7.996-3.6-7.996-7.996S415.333,319.854,419.808,319.854z"/>
	<path style="fill:#CCD1D9;" d="M419.808,439.799c4.396,0,7.996,3.6,7.996,7.996s-3.6,7.996-7.996,7.996
		c-4.475,0-7.996-3.6-7.996-7.996S415.333,439.799,419.808,439.799z"/>
	<path style="fill:#CCD1D9;" d="M419.808,399.817c4.396,0,7.996,3.601,7.996,7.997s-3.6,7.996-7.996,7.996
		c-4.475,0-7.996-3.6-7.996-7.996S415.333,399.817,419.808,399.817z"/>
	<path style="fill:#CCD1D9;" d="M419.808,359.835c4.396,0,7.996,3.601,7.996,7.997s-3.6,7.996-7.996,7.996
		c-4.475,0-7.996-3.6-7.996-7.996S415.333,359.835,419.808,359.835z"/>
</g>
<path style="fill:#656D78;" d="M255.883,375.828c4.396,0,7.996,3.6,7.996,7.996s-3.6,7.996-7.996,7.996s-7.997-3.6-7.997-7.996
	S251.487,375.828,255.883,375.828z"/>
<path style="fill:#FFCE54;" d="M219.9,359.835h71.967v55.975H219.9V359.835z M255.883,391.821c4.396,0,7.996-3.6,7.996-7.996
	s-3.6-7.996-7.996-7.996s-7.997,3.6-7.997,7.996S251.487,391.821,255.883,391.821z"/>
<g style="opacity:0.5;">
	<rect x="227.933" y="287.873" style="fill:#FFFFFF;" width="7.918" height="71.967"/>
</g>
<g style="opacity:0.2;">
	<rect x="275.903" y="287.873" width="7.918" height="71.967"/>
</g>
<path style="fill:#656D78;" d="M255.883,311.858c-15.458,0-27.987,12.525-27.987,27.987v19.99h15.993v-19.99
	c0-6.622,5.369-11.995,11.995-11.995s11.994,5.373,11.994,11.995v19.99h15.993v-19.99
	C283.87,324.383,271.337,311.858,255.883,311.858z"/>
<g style="opacity:0.2;">
	<rect x="227.893" y="351.843" width="15.993" height="7.996"/>
</g>
<g style="opacity:0.2;">
	<rect x="267.873" y="351.843" width="15.993" height="7.996"/>
</g>
<g>
	<rect x="227.893" y="47.973" style="fill:#AAB2BD;" width="55.896" height="95.8"/>
	<rect x="68.043" y="23.993" style="fill:#AAB2BD;" width="47.899" height="119.78"/>
</g>
<g>
	<path style="fill:#CCD1D9;" d="M91.958,55.975c4.396,0,7.997,3.6,7.997,7.996s-3.6,7.996-7.997,7.996
		c-4.396,0-7.997-3.6-7.997-7.996S87.562,55.975,91.958,55.975z"/>
	<path style="fill:#CCD1D9;" d="M91.958,95.956c4.396,0,7.997,3.6,7.997,7.996s-3.6,7.996-7.997,7.996
		c-4.396,0-7.997-3.6-7.997-7.996S87.562,95.956,91.958,95.956z"/>
</g>
<rect x="395.853" y="23.993" style="fill:#AAB2BD;" width="47.9" height="119.78"/>
<g>
	<path style="fill:#CCD1D9;" d="M419.761,55.975c4.404,0,7.996,3.6,7.996,7.996s-3.592,7.996-7.996,7.996
		c-4.389,0-7.996-3.6-7.996-7.996S415.372,55.975,419.761,55.975z"/>
	<path style="fill:#CCD1D9;" d="M419.761,95.956c4.404,0,7.996,3.6,7.996,7.996s-3.592,7.996-7.996,7.996
		c-4.389,0-7.996-3.6-7.996-7.996S415.372,95.956,419.761,95.956z"/>
</g>
<g style="opacity:0.5;">
	<rect x="68.043" y="23.993" style="fill:#FFFFFF;" width="7.918" height="119.94"/>
</g>
<g style="opacity:0.2;">
	<rect x="108.033" y="23.993" width="7.918" height="119.94"/>
</g>
<g style="opacity:0.5;">
	<rect x="395.823" y="23.993" style="fill:#FFFFFF;" width="7.919" height="119.94"/>
</g>
<g style="opacity:0.5;">
	<rect x="227.933" y="47.973" style="fill:#FFFFFF;" width="7.918" height="95.96"/>
</g>
<g style="opacity:0.2;">
	<rect x="435.803" y="23.993" width="7.919" height="119.94"/>
</g>
<g style="opacity:0.2;">
	<rect x="275.833" y="47.973" width="7.918" height="95.96"/>
</g>
<g style="opacity:0.5;">
	<rect x="68.043" y="287.873" style="fill:#FFFFFF;" width="7.918" height="199.91"/>
</g>
<g style="opacity:0.2;">
	<rect x="107.993" y="287.873" width="7.918" height="199.91"/>
</g>
<g style="opacity:0.2;">
	<rect x="435.813" y="287.873" width="7.919" height="199.91"/>
</g>
<g style="opacity:0.5;">
	<rect x="395.823" y="287.873" style="fill:#FFFFFF;" width="7.919" height="199.91"/>
</g>
<g style="opacity:0.7;">
	<path style="fill:#FFFFFF;" d="M419.808,327.85c0-2.912,1.655-5.356,3.998-6.762c-1.194-0.711-2.515-1.234-3.998-1.234
		c-4.396,0-7.996,3.6-7.996,7.996s3.6,7.996,7.996,7.996c1.483,0,2.804-0.522,3.998-1.233
		C421.463,333.207,419.808,330.763,419.808,327.85z"/>
</g>
<g style="opacity:0.7;">
	<path style="fill:#FFFFFF;" d="M419.808,103.87c0-2.912,1.655-5.36,3.998-6.763c-1.194-0.71-2.515-1.233-3.998-1.233
		c-4.396,0-7.996,3.6-7.996,7.996s3.6,7.996,7.996,7.996c1.483,0,2.804-0.522,3.998-1.233
		C421.463,109.232,419.808,106.783,419.808,103.87z"/>
</g>
<g style="opacity:0.7;">
	<path style="fill:#FFFFFF;" d="M419.808,63.971c0-2.913,1.655-5.361,3.998-6.763c-1.194-0.711-2.515-1.233-3.998-1.233
		c-4.396,0-7.996,3.6-7.996,7.996s3.6,7.996,7.996,7.996c1.483,0,2.804-0.523,3.998-1.233
		C421.463,69.331,419.808,66.883,419.808,63.971z"/>
</g>
<g style="opacity:0.7;">
	<path style="fill:#FFFFFF;" d="M91.958,63.971c0-2.913,1.656-5.361,3.999-6.763c-1.195-0.711-2.515-1.233-3.999-1.233
		c-4.396,0-7.997,3.6-7.997,7.996s3.601,7.996,7.997,7.996c1.484,0,2.803-0.523,3.999-1.233
		C93.613,69.331,91.958,66.883,91.958,63.971z"/>
</g>
<g style="opacity:0.7;">
	<path style="fill:#FFFFFF;" d="M91.958,103.87c0-2.912,1.656-5.36,3.999-6.763c-1.195-0.71-2.515-1.233-3.999-1.233
		c-4.396,0-7.997,3.6-7.997,7.996s3.601,7.996,7.997,7.996c1.484,0,2.803-0.522,3.999-1.233
		C93.613,109.232,91.958,106.783,91.958,103.87z"/>
</g>
<g style="opacity:0.7;">
	<path style="fill:#FFFFFF;" d="M419.808,367.832c0-2.913,1.655-5.357,3.998-6.763c-1.194-0.711-2.515-1.234-3.998-1.234
		c-4.396,0-7.996,3.601-7.996,7.997s3.6,7.996,7.996,7.996c1.483,0,2.804-0.523,3.998-1.234
		C421.463,373.189,419.808,370.744,419.808,367.832z"/>
</g>
<g style="opacity:0.7;">
	<path style="fill:#FFFFFF;" d="M419.808,407.814c0-2.913,1.655-5.357,3.998-6.763c-1.194-0.711-2.515-1.234-3.998-1.234
		c-4.396,0-7.996,3.601-7.996,7.997s3.6,7.996,7.996,7.996c1.483,0,2.804-0.523,3.998-1.233
		C421.463,413.17,419.808,410.727,419.808,407.814z"/>
</g>
<g style="opacity:0.7;">
	<path style="fill:#FFFFFF;" d="M419.808,447.795c0-2.912,1.655-5.357,3.998-6.763c-1.194-0.71-2.515-1.233-3.998-1.233
		c-4.396,0-7.996,3.6-7.996,7.996s3.6,7.996,7.996,7.996c1.483,0,2.804-0.523,3.998-1.233
		C421.463,453.153,419.808,450.708,419.808,447.795z"/>
</g>
<g style="opacity:0.5;">
	<rect x="219.903" y="359.833" style="fill:#FFFFFF;" width="8.01" height="55.975"/>
</g>
<g style="opacity:0.2;">
	<rect x="283.873" y="359.833" width="8.01" height="55.975"/>
</g>
<g>
	<path style="fill:#3A3847;" d="M507.768,291.866H3.998c-2.21,0-3.998-1.788-3.998-3.998s1.788-3.998,3.998-3.998h503.77
		c2.21,0,3.998,1.788,3.998,3.998S509.978,291.866,507.768,291.866z"/>
	<path style="fill:#3A3847;" d="M491.775,491.776H19.99c-2.209,0-3.998-1.789-3.998-3.999s1.789-3.998,3.998-3.998h471.784
		c2.21,0,3.998,1.788,3.998,3.998S493.985,491.776,491.775,491.776z"/>
	<path style="fill:#3A3847;" d="M3.998,475.782c-2.21,0-3.998-1.788-3.998-3.998V287.868c0-2.21,1.788-3.998,3.998-3.998
		s3.998,1.788,3.998,3.998v183.916C7.996,473.994,6.208,475.782,3.998,475.782z"/>
	<path style="fill:#3A3847;" d="M507.768,475.782c-2.21,0-3.999-1.788-3.999-3.998V287.868c0-2.21,1.789-3.998,3.999-3.998
		s3.998,1.788,3.998,3.998v183.916C511.766,473.994,509.978,475.782,507.768,475.782z"/>
	<path style="fill:#3A3847;" d="M75.965,219.9c-1.019,0-2.038-0.387-2.819-1.164L8.777,154.765
		c-1.566-1.554-1.574-4.088-0.016-5.653c1.562-1.562,4.092-1.569,5.654-0.016l64.369,63.971c1.565,1.554,1.573,4.088,0.016,5.653
		C78.019,219.505,76.992,219.9,75.965,219.9z"/>
	<path style="fill:#3A3847;" d="M82.763,203.906c-1.019,0-2.038-0.387-2.819-1.163l-48.298-47.979
		c-1.566-1.554-1.574-4.084-0.016-5.653c1.558-1.562,4.088-1.569,5.653-0.016l48.298,47.978c1.566,1.555,1.574,4.085,0.016,5.654
		C84.817,203.512,83.79,203.906,82.763,203.906z"/>
	<path style="fill:#3A3847;" d="M435.644,219.9c-2.209,0-4.037-1.788-4.037-3.998c0-1.336,0.641-2.522,1.633-3.245l63.955-63.561
		c1.577-1.565,4.1-1.542,5.653,0.016c1.554,1.565,1.546,4.1-0.016,5.653l-64.369,63.971
		C437.714,219.482,436.698,219.9,435.644,219.9z"/>
	<path style="fill:#3A3847;" d="M3.998,147.773c-2.21,0-3.998-1.789-3.998-3.999V63.971c0-2.21,1.788-3.998,3.998-3.998
		s3.998,1.788,3.998,3.998v79.803C7.996,145.984,6.208,147.773,3.998,147.773z"/>
	<path style="fill:#3A3847;" d="M507.768,147.773c-2.21,0-3.999-1.789-3.999-3.999V63.971c0-2.21,1.789-3.998,3.999-3.998
		s3.998,1.788,3.998,3.998v79.803C511.766,145.984,509.978,147.773,507.768,147.773z"/>
	<path style="fill:#3A3847;" d="M507.768,147.933l-503.77-0.16c-2.21,0-3.998-1.789-3.998-3.999s1.788-3.998,3.998-3.998
		l503.77,0.16c2.21,0,3.998,1.788,3.998,3.998S509.978,147.933,507.768,147.933z"/>
	<path style="fill:#3A3847;" d="M3.998,67.969C1.788,67.969,0,66.181,0,63.971c0-24.251,19.729-43.98,43.979-43.98
		c2.21,0,3.998,1.789,3.998,3.999s-1.788,3.998-3.998,3.998c-19.842,0-35.983,16.141-35.983,35.983
		C7.996,66.181,6.208,67.969,3.998,67.969z"/>
	<path style="fill:#3A3847;" d="M507.768,67.969c-2.21,0-3.999-1.788-3.999-3.998c0-19.843-16.141-35.983-35.982-35.983
		c-2.211,0-3.999-1.788-3.999-3.998s1.788-3.999,3.999-3.999c24.246,0,43.979,19.729,43.979,43.98
		C511.766,66.181,509.978,67.969,507.768,67.969z"/>
	<path style="fill:#3A3847;" d="M467.786,27.987H43.98c-2.21,0-3.998-1.788-3.998-3.998s1.788-3.999,3.998-3.999h423.807
		c2.209,0,3.998,1.789,3.998,3.999S469.995,27.987,467.786,27.987z"/>
	<path style="fill:#3A3847;" d="M500.013,283.87c-1.022,0-2.038-0.391-2.818-1.163l-64.369-63.972
		c-1.562-1.554-1.57-4.088-0.016-5.653c1.562-1.562,4.084-1.577,5.653-0.016l64.369,63.971c1.562,1.555,1.569,4.084,0.016,5.654
		C502.068,283.48,501.044,283.87,500.013,283.87z"/>
	<path style="fill:#3A3847;" d="M11.596,283.87c-1.026,0-2.054-0.391-2.834-1.179c-1.558-1.57-1.55-4.1,0.016-5.654l64.369-63.971
		c1.562-1.565,4.092-1.55,5.654,0.016c1.558,1.565,1.55,4.1-0.016,5.653l-64.369,63.972C13.634,283.48,12.615,283.87,11.596,283.87z
		"/>
	<path style="fill:#3A3847;" d="M35.745,283.87c-1.027,0-2.058-0.391-2.839-1.187c-1.554-1.562-1.546-4.092,0.023-5.654
		l48.295-47.896c1.565-1.554,4.092-1.554,5.653,0.023c1.554,1.566,1.546,4.101-0.023,5.654L38.56,282.714
		C37.779,283.48,36.764,283.87,35.745,283.87z"/>
	<path style="fill:#3A3847;" d="M115.946,275.874H75.965c-2.21,0-3.998-1.788-3.998-3.999c0-2.209,1.788-3.998,3.998-3.998h39.981
		c2.21,0,3.999,1.789,3.999,3.998C119.945,274.086,118.156,275.874,115.946,275.874z"/>
	<path style="fill:#3A3847;" d="M67.969,283.87c-2.21,0-3.998-1.788-3.998-3.998c0-3.155,1.183-6.075,3.416-8.434
		c2.507-2.374,5.419-3.562,8.578-3.562c2.21,0,3.998,1.789,3.998,3.998c0,2.211-1.788,3.999-3.998,3.999
		c-1.101,0-2.058,0.397-2.924,1.218c-0.675,0.719-1.074,1.679-1.074,2.78C71.967,282.082,70.179,283.87,67.969,283.87z"/>
	<path style="fill:#3A3847;" d="M123.943,283.87c-2.209,0-3.998-1.788-3.998-3.998c0-2.202-1.792-3.998-3.999-3.998
		c-2.209,0-3.998-1.788-3.998-3.999c0-2.209,1.789-3.998,3.998-3.998c6.614,0,11.995,5.381,11.995,11.995
		C127.942,282.082,126.153,283.87,123.943,283.87z"/>
	<path style="fill:#3A3847;" d="M147.932,259.881H107.95c-2.21,0-3.998-1.788-3.998-3.998c0-2.21,1.788-3.998,3.998-3.998h39.982
		c2.209,0,3.998,1.788,3.998,3.998C151.93,258.093,150.142,259.881,147.932,259.881z"/>
	<path style="fill:#3A3847;" d="M99.954,267.877c-2.21,0-3.998-1.788-3.998-3.998c0-6.613,5.38-11.994,11.994-11.994
		c2.21,0,3.998,1.788,3.998,3.998s-1.788,3.998-3.998,3.998c-2.206,0-3.998,1.792-3.998,3.998
		C103.952,266.089,102.164,267.877,99.954,267.877z"/>
	<path style="fill:#3A3847;" d="M155.929,267.877c-2.21,0-3.999-1.788-3.999-3.998c0-2.206-1.792-3.998-3.998-3.998
		c-2.21,0-3.999-1.788-3.999-3.998c0-2.21,1.789-3.998,3.999-3.998c6.614,0,11.995,5.381,11.995,11.994
		C159.927,266.089,158.138,267.877,155.929,267.877z"/>
	<path style="fill:#3A3847;" d="M179.918,243.889h-39.982c-2.21,0-3.998-1.789-3.998-3.999s1.788-3.998,3.998-3.998h39.982
		c2.209,0,3.998,1.788,3.998,3.998S182.127,243.889,179.918,243.889z"/>
	<path style="fill:#3A3847;" d="M131.94,251.885c-2.21,0-3.998-1.788-3.998-3.998c0-6.614,5.38-11.995,11.994-11.995
		c2.21,0,3.998,1.788,3.998,3.998s-1.788,3.999-3.998,3.999c-2.206,0-3.998,1.792-3.998,3.998
		C135.938,250.097,134.15,251.885,131.94,251.885z"/>
	<path style="fill:#3A3847;" d="M187.914,251.885c-2.21,0-3.999-1.788-3.999-3.998c0-2.206-1.792-3.998-3.998-3.998
		c-2.21,0-3.999-1.789-3.999-3.999s1.789-3.998,3.999-3.998c6.614,0,11.995,5.381,11.995,11.995
		C191.912,250.097,190.124,251.885,187.914,251.885z"/>
	<path style="fill:#3A3847;" d="M211.903,227.896h-39.982c-2.21,0-3.998-1.788-3.998-3.998s1.788-3.998,3.998-3.998h39.982
		c2.209,0,3.998,1.788,3.998,3.998S214.112,227.896,211.903,227.896z"/>
	<path style="fill:#3A3847;" d="M163.925,235.892c-2.21,0-3.998-1.788-3.998-3.998c0-6.614,5.38-11.994,11.994-11.994
		c2.21,0,3.998,1.788,3.998,3.998s-1.788,3.998-3.998,3.998c-2.206,0-3.998,1.792-3.998,3.998
		C167.923,234.104,166.135,235.892,163.925,235.892z"/>
	<path style="fill:#3A3847;" d="M219.9,235.892c-2.21,0-3.999-1.788-3.999-3.998c0-2.206-1.792-3.998-3.998-3.998
		c-2.21,0-3.999-1.788-3.999-3.998s1.789-3.998,3.999-3.998c6.614,0,11.995,5.38,11.995,11.994
		C223.898,234.104,222.109,235.892,219.9,235.892z"/>
	<path style="fill:#3A3847;" d="M243.888,211.904h-39.982c-2.21,0-3.998-1.789-3.998-3.999s1.788-3.998,3.998-3.998h39.982
		c2.209,0,3.998,1.788,3.998,3.998S246.098,211.904,243.888,211.904z"/>
	<path style="fill:#3A3847;" d="M195.91,219.9c-2.21,0-3.998-1.788-3.998-3.998c0-6.614,5.38-11.995,11.994-11.995
		c2.21,0,3.998,1.788,3.998,3.998s-1.788,3.999-3.998,3.999c-2.206,0-3.998,1.792-3.998,3.998
		C199.908,218.112,198.12,219.9,195.91,219.9z"/>
	<path style="fill:#3A3847;" d="M251.885,219.9c-2.21,0-3.999-1.788-3.999-3.998c0-2.206-1.792-3.998-3.998-3.998
		c-2.21,0-3.999-1.789-3.999-3.999s1.789-3.998,3.999-3.998c6.614,0,11.995,5.381,11.995,11.995
		C255.883,218.112,254.094,219.9,251.885,219.9z"/>
	<path style="fill:#3A3847;" d="M275.874,195.91h-39.982c-2.21,0-3.998-1.788-3.998-3.998s1.788-3.998,3.998-3.998h39.982
		c2.209,0,3.998,1.788,3.998,3.998S278.083,195.91,275.874,195.91z"/>
	<path style="fill:#3A3847;" d="M227.896,203.906c-2.21,0-3.998-1.788-3.998-3.998c0-6.614,5.38-11.994,11.994-11.994
		c2.21,0,3.998,1.788,3.998,3.998s-1.788,3.998-3.998,3.998c-2.206,0-3.998,1.792-3.998,3.998
		C231.894,202.118,230.106,203.906,227.896,203.906z"/>
	<path style="fill:#3A3847;" d="M283.87,203.906c-2.21,0-3.998-1.788-3.998-3.998c0-2.206-1.797-3.998-3.998-3.998
		c-2.211,0-3.999-1.788-3.999-3.998s1.788-3.998,3.999-3.998c6.613,0,11.994,5.38,11.994,11.994
		C287.868,202.118,286.08,203.906,283.87,203.906z"/>
	<path style="fill:#3A3847;" d="M307.859,211.904h-39.981c-2.21,0-3.998-1.789-3.998-3.999s1.788-3.998,3.998-3.998h39.981
		c2.211,0,3.998,1.788,3.998,3.998S310.07,211.904,307.859,211.904z"/>
	<path style="fill:#3A3847;" d="M259.881,219.9c-2.21,0-3.998-1.788-3.998-3.998c0-6.614,5.38-11.995,11.994-11.995
		c2.21,0,3.998,1.788,3.998,3.998s-1.788,3.999-3.998,3.999c-2.202,0-3.998,1.792-3.998,3.998
		C263.879,218.112,262.091,219.9,259.881,219.9z"/>
	<path style="fill:#3A3847;" d="M315.856,219.9c-2.21,0-3.999-1.788-3.999-3.998c0-2.206-1.795-3.998-3.998-3.998
		c-2.209,0-3.998-1.789-3.998-3.999s1.789-3.998,3.998-3.998c6.614,0,11.995,5.381,11.995,11.995
		C319.854,218.112,318.066,219.9,315.856,219.9z"/>
	<path style="fill:#3A3847;" d="M275.796,227.896h-39.982c-2.21,0-3.998-1.788-3.998-3.998s1.788-3.998,3.998-3.998h39.982
		c2.209,0,3.998,1.788,3.998,3.998S278.005,227.896,275.796,227.896z"/>
	<path style="fill:#3A3847;" d="M227.818,235.892c-2.21,0-3.998-1.788-3.998-3.998c0-6.614,5.38-11.994,11.994-11.994
		c2.21,0,3.998,1.788,3.998,3.998s-1.788,3.998-3.998,3.998c-2.206,0-3.998,1.792-3.998,3.998
		C231.816,234.104,230.028,235.892,227.818,235.892z"/>
	<path style="fill:#3A3847;" d="M283.792,235.892c-2.21,0-3.998-1.788-3.998-3.998c0-2.206-1.797-3.998-3.998-3.998
		c-2.211,0-3.999-1.788-3.999-3.998s1.788-3.998,3.999-3.998c6.613,0,11.994,5.38,11.994,11.994
		C287.79,234.104,286.002,235.892,283.792,235.892z"/>
	<path style="fill:#3A3847;" d="M339.689,227.896h-39.982c-2.21,0-3.998-1.788-3.998-3.998s1.788-3.998,3.998-3.998h39.982
		c2.209,0,3.998,1.788,3.998,3.998S341.898,227.896,339.689,227.896z"/>
	<path style="fill:#3A3847;" d="M291.71,235.892c-2.21,0-3.998-1.788-3.998-3.998c0-6.614,5.38-11.994,11.994-11.994
		c2.21,0,3.998,1.788,3.998,3.998s-1.788,3.998-3.998,3.998c-2.241,0-3.998,1.757-3.998,3.998
		C295.708,234.104,293.92,235.892,291.71,235.892z"/>
	<path style="fill:#3A3847;" d="M347.685,235.892c-2.21,0-3.998-1.788-3.998-3.998c0-2.206-1.797-3.998-3.998-3.998
		c-2.211,0-3.999-1.788-3.999-3.998s1.788-3.998,3.999-3.998c6.613,0,11.994,5.38,11.994,11.994
		C351.683,234.104,349.895,235.892,347.685,235.892z"/>
	<path style="fill:#3A3847;" d="M243.888,243.889h-39.982c-2.21,0-3.998-1.789-3.998-3.999s1.788-3.998,3.998-3.998h39.982
		c2.209,0,3.998,1.788,3.998,3.998S246.098,243.889,243.888,243.889z"/>
	<path style="fill:#3A3847;" d="M195.91,251.885c-2.21,0-3.998-1.788-3.998-3.998c0-6.614,5.38-11.995,11.994-11.995
		c2.21,0,3.998,1.788,3.998,3.998s-1.788,3.999-3.998,3.999c-2.206,0-3.998,1.792-3.998,3.998
		C199.908,250.097,198.12,251.885,195.91,251.885z"/>
	<path style="fill:#3A3847;" d="M251.885,251.885c-2.21,0-3.999-1.788-3.999-3.998c0-2.206-1.792-3.998-3.998-3.998
		c-2.21,0-3.999-1.789-3.999-3.999s1.789-3.998,3.999-3.998c6.614,0,11.995,5.381,11.995,11.995
		C255.883,250.097,254.094,251.885,251.885,251.885z"/>
	<path style="fill:#3A3847;" d="M307.859,243.889h-39.981c-2.21,0-3.998-1.789-3.998-3.999s1.788-3.998,3.998-3.998h39.981
		c2.211,0,3.998,1.788,3.998,3.998S310.07,243.889,307.859,243.889z"/>
	<path style="fill:#3A3847;" d="M259.881,251.885c-2.21,0-3.998-1.788-3.998-3.998c0-6.614,5.38-11.995,11.994-11.995
		c2.21,0,3.998,1.788,3.998,3.998s-1.788,3.999-3.998,3.999c-2.202,0-3.998,1.792-3.998,3.998
		C263.879,250.097,262.091,251.885,259.881,251.885z"/>
	<path style="fill:#3A3847;" d="M315.856,251.885c-2.21,0-3.999-1.788-3.999-3.998c0-2.206-1.795-3.998-3.998-3.998
		c-2.209,0-3.998-1.789-3.998-3.999s1.789-3.998,3.998-3.998c6.614,0,11.995,5.381,11.995,11.995
		C319.854,250.097,318.066,251.885,315.856,251.885z"/>
	<path style="fill:#3A3847;" d="M371.829,243.889h-39.981c-2.21,0-3.998-1.789-3.998-3.999s1.788-3.998,3.998-3.998h39.981
		c2.211,0,3.998,1.788,3.998,3.998S374.04,243.889,371.829,243.889z"/>
	<path style="fill:#3A3847;" d="M323.852,251.885c-2.21,0-3.998-1.788-3.998-3.998c0-6.614,5.38-11.995,11.994-11.995
		c2.21,0,3.998,1.788,3.998,3.998s-1.788,3.999-3.998,3.999c-2.202,0-3.998,1.792-3.998,3.998
		C327.85,250.097,326.062,251.885,323.852,251.885z"/>
	<path style="fill:#3A3847;" d="M379.826,251.885c-2.21,0-3.999-1.788-3.999-3.998c0-2.206-1.795-3.998-3.998-3.998
		c-2.209,0-3.998-1.789-3.998-3.999s1.789-3.998,3.998-3.998c6.614,0,11.995,5.381,11.995,11.995
		C383.824,250.097,382.036,251.885,379.826,251.885z"/>
	<path style="fill:#3A3847;" d="M211.903,259.881h-39.982c-2.21,0-3.998-1.788-3.998-3.998c0-2.21,1.788-3.998,3.998-3.998h39.982
		c2.209,0,3.998,1.788,3.998,3.998C215.901,258.093,214.112,259.881,211.903,259.881z"/>
	<path style="fill:#3A3847;" d="M163.925,267.877c-2.21,0-3.998-1.788-3.998-3.998c0-6.613,5.38-11.994,11.994-11.994
		c2.21,0,3.998,1.788,3.998,3.998s-1.788,3.998-3.998,3.998c-2.206,0-3.998,1.792-3.998,3.998
		C167.923,266.089,166.135,267.877,163.925,267.877z"/>
	<path style="fill:#3A3847;" d="M219.9,267.877c-2.21,0-3.999-1.788-3.999-3.998c0-2.206-1.792-3.998-3.998-3.998
		c-2.21,0-3.999-1.788-3.999-3.998c0-2.21,1.789-3.998,3.999-3.998c6.614,0,11.995,5.381,11.995,11.994
		C223.898,266.089,222.109,267.877,219.9,267.877z"/>
	<path style="fill:#3A3847;" d="M275.874,259.881h-39.982c-2.21,0-3.998-1.788-3.998-3.998c0-2.21,1.788-3.998,3.998-3.998h39.982
		c2.209,0,3.998,1.788,3.998,3.998C279.872,258.093,278.083,259.881,275.874,259.881z"/>
	<path style="fill:#3A3847;" d="M227.896,267.877c-2.21,0-3.998-1.788-3.998-3.998c0-6.613,5.38-11.994,11.994-11.994
		c2.21,0,3.998,1.788,3.998,3.998s-1.788,3.998-3.998,3.998c-2.206,0-3.998,1.792-3.998,3.998
		C231.894,266.089,230.106,267.877,227.896,267.877z"/>
	<path style="fill:#3A3847;" d="M283.87,267.877c-2.21,0-3.998-1.788-3.998-3.998c0-2.206-1.797-3.998-3.998-3.998
		c-2.211,0-3.999-1.788-3.999-3.998c0-2.21,1.788-3.998,3.999-3.998c6.613,0,11.994,5.381,11.994,11.994
		C287.868,266.089,286.08,267.877,283.87,267.877z"/>
	<path style="fill:#3A3847;" d="M339.845,259.881h-39.982c-2.21,0-3.998-1.788-3.998-3.998c0-2.21,1.788-3.998,3.998-3.998h39.982
		c2.209,0,3.998,1.788,3.998,3.998C343.843,258.093,342.054,259.881,339.845,259.881z"/>
	<path style="fill:#3A3847;" d="M291.866,267.877c-2.21,0-3.998-1.788-3.998-3.998c0-6.613,5.38-11.994,11.994-11.994
		c2.21,0,3.998,1.788,3.998,3.998s-1.788,3.998-3.998,3.998c-2.202,0-3.998,1.792-3.998,3.998
		C295.864,266.089,294.076,267.877,291.866,267.877z"/>
	<path style="fill:#3A3847;" d="M347.841,267.877c-2.21,0-3.998-1.788-3.998-3.998c0-2.206-1.797-3.998-3.998-3.998
		c-2.211,0-3.999-1.788-3.999-3.998c0-2.21,1.788-3.998,3.999-3.998c6.613,0,11.994,5.381,11.994,11.994
		C351.839,266.089,350.051,267.877,347.841,267.877z"/>
	<path style="fill:#3A3847;" d="M403.816,259.881h-39.983c-2.21,0-3.998-1.788-3.998-3.998c0-2.21,1.788-3.998,3.998-3.998h39.982
		c2.209,0,3.998,1.788,3.998,3.998C407.813,258.093,406.025,259.881,403.816,259.881z"/>
	<path style="fill:#3A3847;" d="M355.837,267.877c-2.21,0-3.998-1.788-3.998-3.998c0-6.613,5.38-11.994,11.994-11.994
		c2.21,0,3.998,1.788,3.998,3.998s-1.788,3.998-3.998,3.998c-2.202,0-3.998,1.792-3.998,3.998
		C359.835,266.089,358.047,267.877,355.837,267.877z"/>
	<path style="fill:#3A3847;" d="M411.812,267.877c-2.21,0-3.998-1.788-3.998-3.998c0-2.206-1.797-3.998-3.998-3.998
		c-2.211,0-3.999-1.788-3.999-3.998c0-2.21,1.788-3.998,3.999-3.998c6.613,0,11.994,5.381,11.994,11.994
		C415.81,266.089,414.022,267.877,411.812,267.877z"/>
	<path style="fill:#3A3847;" d="M179.918,275.874h-39.982c-2.21,0-3.998-1.788-3.998-3.999c0-2.209,1.788-3.998,3.998-3.998h39.982
		c2.209,0,3.998,1.789,3.998,3.998C183.916,274.086,182.127,275.874,179.918,275.874z"/>
	<path style="fill:#3A3847;" d="M131.94,283.87c-2.21,0-3.998-1.788-3.998-3.998c0-6.614,5.38-11.995,11.994-11.995
		c2.21,0,3.998,1.789,3.998,3.998c0,2.211-1.788,3.999-3.998,3.999c-2.206,0-3.998,1.796-3.998,3.998
		C135.938,282.082,134.15,283.87,131.94,283.87z"/>
	<path style="fill:#3A3847;" d="M187.914,283.87c-2.21,0-3.999-1.788-3.999-3.998c0-2.202-1.792-3.998-3.998-3.998
		c-2.21,0-3.999-1.788-3.999-3.999c0-2.209,1.789-3.998,3.999-3.998c6.614,0,11.995,5.381,11.995,11.995
		C191.912,282.082,190.124,283.87,187.914,283.87z"/>
	<path style="fill:#3A3847;" d="M243.888,275.874h-39.982c-2.21,0-3.998-1.788-3.998-3.999c0-2.209,1.788-3.998,3.998-3.998h39.982
		c2.209,0,3.998,1.789,3.998,3.998C247.886,274.086,246.098,275.874,243.888,275.874z"/>
	<path style="fill:#3A3847;" d="M195.91,283.87c-2.21,0-3.998-1.788-3.998-3.998c0-6.614,5.38-11.995,11.994-11.995
		c2.21,0,3.998,1.789,3.998,3.998c0,2.211-1.788,3.999-3.998,3.999c-2.206,0-3.998,1.796-3.998,3.998
		C199.908,282.082,198.12,283.87,195.91,283.87z"/>
	<path style="fill:#3A3847;" d="M251.885,283.87c-2.21,0-3.999-1.788-3.999-3.998c0-2.202-1.792-3.998-3.998-3.998
		c-2.21,0-3.999-1.788-3.999-3.999c0-2.209,1.789-3.998,3.999-3.998c6.614,0,11.995,5.381,11.995,11.995
		C255.883,282.082,254.094,283.87,251.885,283.87z"/>
	<path style="fill:#3A3847;" d="M307.859,275.874h-39.981c-2.21,0-3.998-1.788-3.998-3.999c0-2.209,1.788-3.998,3.998-3.998h39.981
		c2.211,0,3.998,1.789,3.998,3.998C311.857,274.086,310.07,275.874,307.859,275.874z"/>
	<path style="fill:#3A3847;" d="M259.881,283.87c-2.21,0-3.998-1.788-3.998-3.998c0-6.614,5.38-11.995,11.994-11.995
		c2.21,0,3.998,1.789,3.998,3.998c0,2.211-1.788,3.999-3.998,3.999c-2.202,0-3.998,1.796-3.998,3.998
		C263.879,282.082,262.091,283.87,259.881,283.87z"/>
	<path style="fill:#3A3847;" d="M315.856,283.87c-2.21,0-3.999-1.788-3.999-3.998c0-2.202-1.795-3.998-3.998-3.998
		c-2.209,0-3.998-1.788-3.998-3.999c0-2.209,1.789-3.998,3.998-3.998c6.614,0,11.995,5.381,11.995,11.995
		C319.854,282.082,318.066,283.87,315.856,283.87z"/>
	<path style="fill:#3A3847;" d="M371.829,275.874h-39.981c-2.21,0-3.998-1.788-3.998-3.999c0-2.209,1.788-3.998,3.998-3.998h39.981
		c2.211,0,3.998,1.789,3.998,3.998C375.827,274.086,374.04,275.874,371.829,275.874z"/>
	<path style="fill:#3A3847;" d="M323.852,283.87c-2.21,0-3.998-1.788-3.998-3.998c0-6.614,5.38-11.995,11.994-11.995
		c2.21,0,3.998,1.789,3.998,3.998c0,2.211-1.788,3.999-3.998,3.999c-2.202,0-3.998,1.796-3.998,3.998
		C327.85,282.082,326.062,283.87,323.852,283.87z"/>
	<path style="fill:#3A3847;" d="M379.826,283.87c-2.21,0-3.999-1.788-3.999-3.998c0-2.202-1.795-3.998-3.998-3.998
		c-2.209,0-3.998-1.788-3.998-3.999c0-2.209,1.789-3.998,3.998-3.998c6.614,0,11.995,5.381,11.995,11.995
		C383.824,282.082,382.036,283.87,379.826,283.87z"/>
	<path style="fill:#3A3847;" d="M435.8,275.874h-39.981c-2.21,0-3.998-1.788-3.998-3.999c0-2.209,1.788-3.998,3.998-3.998H435.8
		c2.211,0,3.998,1.789,3.998,3.998C439.798,274.086,438.011,275.874,435.8,275.874z"/>
	<path style="fill:#3A3847;" d="M387.822,283.87c-2.21,0-3.998-1.788-3.998-3.998c0-6.614,5.38-11.995,11.994-11.995
		c2.21,0,3.998,1.789,3.998,3.998c0,2.211-1.788,3.999-3.998,3.999c-2.202,0-3.998,1.796-3.998,3.998
		C391.821,282.082,390.032,283.87,387.822,283.87z"/>
	<path style="fill:#3A3847;" d="M443.797,283.87c-2.21,0-3.999-1.788-3.999-3.998c0-1.102-0.397-2.062-1.226-2.929
		c-0.71-0.664-1.671-1.069-2.772-1.069c-2.209,0-3.998-1.788-3.998-3.999c0-2.209,1.789-3.998,3.998-3.998
		c3.155,0,6.068,1.18,8.426,3.413c2.391,2.522,3.569,5.427,3.569,8.582C447.795,282.082,446.007,283.87,443.797,283.87z"/>
	<path style="fill:#3A3847;" d="M163.925,219.9h-87.96c-2.21,0-3.998-1.788-3.998-3.998s1.788-3.998,3.998-3.998h87.96
		c2.21,0,3.998,1.788,3.998,3.998S166.135,219.9,163.925,219.9z"/>
	<path style="fill:#3A3847;" d="M435.558,219.9h-87.717c-2.21,0-3.998-1.788-3.998-3.998s1.788-3.998,3.998-3.998h87.717
		c2.211,0,3.999,1.788,3.999,3.998S437.769,219.9,435.558,219.9z"/>
	<path style="fill:#3A3847;" d="M19.99,491.776C8.968,491.776,0,482.811,0,471.785c0-2.21,1.788-3.998,3.998-3.998
		s3.998,1.788,3.998,3.998c0,6.614,5.38,11.994,11.994,11.994c2.21,0,3.999,1.788,3.999,3.998S22.2,491.776,19.99,491.776z"/>
	<path style="fill:#3A3847;" d="M491.775,491.776c-2.21,0-3.998-1.789-3.998-3.999s1.788-3.998,3.998-3.998
		c6.614,0,11.994-5.38,11.994-11.994c0-2.21,1.789-3.998,3.999-3.998s3.998,1.788,3.998,3.998
		C511.766,482.811,502.801,491.776,491.775,491.776z"/>
	<path style="fill:#3A3847;" d="M195.91,203.906H82.763c-2.21,0-3.998-1.788-3.998-3.998s1.788-3.998,3.998-3.998H195.91
		c2.21,0,3.998,1.788,3.998,3.998S198.12,203.906,195.91,203.906z"/>
	<path style="fill:#3A3847;" d="M429.007,203.906c-1.031,0-2.055-0.395-2.835-1.179c-1.562-1.569-1.546-4.1,0.016-5.654
		l48.298-47.978c1.57-1.565,4.1-1.542,5.654,0.016c1.562,1.569,1.546,4.1-0.016,5.653l-48.299,47.979
		C431.045,203.52,430.022,203.906,429.007,203.906z"/>
	<path style="fill:#3A3847;" d="M429.007,203.906H315.856c-2.21,0-3.999-1.788-3.999-3.998s1.789-3.998,3.999-3.998h113.151
		c2.209,0,3.998,1.788,3.998,3.998S431.216,203.906,429.007,203.906z"/>
	<path style="fill:#3A3847;" d="M131.94,235.892H83.961c-2.209,0-3.998-1.788-3.998-3.998s1.789-3.998,3.998-3.998h47.979
		c2.21,0,3.998,1.788,3.998,3.998S134.15,235.892,131.94,235.892z"/>
	<path style="fill:#3A3847;" d="M475.861,283.87c-1.016,0-2.038-0.391-2.819-1.163l-48.212-47.9
		c-1.562-1.554-1.578-4.088-0.016-5.654c1.554-1.558,4.076-1.581,5.653-0.016l48.212,47.9c1.562,1.555,1.578,4.084,0.016,5.654
		C477.914,283.48,476.891,283.87,475.861,283.87z"/>
	<path style="fill:#3A3847;" d="M427.648,235.892h-47.899c-2.21,0-3.999-1.788-3.999-3.998s1.789-3.998,3.999-3.998h47.899
		c2.21,0,3.998,1.788,3.998,3.998S429.858,235.892,427.648,235.892z"/>
	<path style="fill:#3A3847;" d="M283.87,343.843c-2.21,0-3.998-1.788-3.998-3.998c0-13.229-10.762-23.989-23.989-23.989
		c-13.229,0-23.989,10.761-23.989,23.989c0,2.21-1.788,3.998-3.998,3.998s-3.998-1.788-3.998-3.998
		c0-17.633,14.349-31.985,31.985-31.985c17.64,0,31.985,14.353,31.985,31.985C287.868,342.055,286.08,343.843,283.87,343.843z"/>
	<path style="fill:#3A3847;" d="M267.877,343.843c-2.21,0-3.998-1.788-3.998-3.998c0-4.404-3.588-7.997-7.996-7.997
		s-7.997,3.593-7.997,7.997c0,2.21-1.789,3.998-3.998,3.998c-2.21,0-3.999-1.788-3.999-3.998c0-8.824,7.173-15.993,15.993-15.993
		c8.816,0,15.992,7.169,15.992,15.993C271.875,342.055,270.087,343.843,267.877,343.843z"/>
	<path style="fill:#3A3847;" d="M227.896,355.837c-2.21,0-3.998-1.788-3.998-3.998v-11.994c0-2.21,1.788-3.999,3.998-3.999
		s3.998,1.789,3.998,3.999v11.994C231.894,354.049,230.106,355.837,227.896,355.837z"/>
	<path style="fill:#3A3847;" d="M283.87,355.837c-2.21,0-3.998-1.788-3.998-3.998v-11.994c0-2.21,1.788-3.999,3.998-3.999
		s3.998,1.789,3.998,3.999v11.994C287.868,354.049,286.08,355.837,283.87,355.837z"/>
	<path style="fill:#3A3847;" d="M243.888,355.837c-2.21,0-3.999-1.788-3.999-3.998v-11.994c0-2.21,1.789-3.999,3.999-3.999
		c2.209,0,3.998,1.789,3.998,3.999v11.994C247.886,354.049,246.098,355.837,243.888,355.837z"/>
	<path style="fill:#3A3847;" d="M267.877,355.837c-2.21,0-3.998-1.788-3.998-3.998v-11.994c0-2.21,1.788-3.999,3.998-3.999
		s3.998,1.789,3.998,3.999v11.994C271.875,354.049,270.087,355.837,267.877,355.837z"/>
	<path style="fill:#3A3847;" d="M291.866,363.834h-71.967c-2.21,0-3.999-1.789-3.999-3.999s1.789-3.998,3.999-3.998h71.967
		c2.21,0,3.998,1.788,3.998,3.998S294.076,363.834,291.866,363.834z"/>
	<path style="fill:#3A3847;" d="M291.866,419.808c-2.21,0-3.998-1.788-3.998-3.998v-55.975c0-2.21,1.788-3.998,3.998-3.998
		s3.998,1.788,3.998,3.998v55.975C295.864,418.02,294.076,419.808,291.866,419.808z"/>
	<path style="fill:#3A3847;" d="M291.866,419.808h-71.967c-2.21,0-3.999-1.788-3.999-3.998s1.789-3.998,3.999-3.998h71.967
		c2.21,0,3.998,1.788,3.998,3.998S294.076,419.808,291.866,419.808z"/>
	<path style="fill:#3A3847;" d="M219.9,419.808c-2.21,0-3.999-1.788-3.999-3.998v-55.975c0-2.21,1.789-3.998,3.999-3.998
		c2.209,0,3.998,1.788,3.998,3.998v55.975C223.898,418.02,222.109,419.808,219.9,419.808z"/>
	<path style="fill:#3A3847;" d="M255.883,395.819c-6.614,0-11.995-5.38-11.995-11.994s5.38-11.994,11.995-11.994
		s11.994,5.38,11.994,11.994S262.497,395.819,255.883,395.819z M255.883,379.826c-2.206,0-3.998,1.796-3.998,3.998
		s1.792,3.998,3.998,3.998s3.998-1.796,3.998-3.998S258.089,379.826,255.883,379.826z"/>
	<path style="fill:#3A3847;" d="M255.883,403.816c-2.21,0-3.998-1.788-3.998-3.999v-7.996c0-2.21,1.788-3.998,3.998-3.998
		c2.21,0,3.998,1.788,3.998,3.998v7.996C259.881,402.028,258.093,403.816,255.883,403.816z"/>
	<path style="fill:#3A3847;" d="M283.87,315.856c-2.21,0-3.998-1.788-3.998-3.998v-15.993c0-2.21,1.788-3.998,3.998-3.998
		s3.998,1.788,3.998,3.998v15.993C287.868,314.068,286.08,315.856,283.87,315.856z"/>
	<path style="fill:#3A3847;" d="M227.896,315.856c-2.21,0-3.998-1.788-3.998-3.998v-15.993c0-2.21,1.788-3.998,3.998-3.998
		s3.998,1.788,3.998,3.998v15.993C231.894,314.068,230.106,315.856,227.896,315.856z"/>
	<path style="fill:#3A3847;" d="M283.87,139.936c-2.21,0-3.998-1.788-3.998-3.998v-87.96c0-2.21,1.788-3.998,3.998-3.998
		s3.998,1.788,3.998,3.998v87.96C287.868,138.148,286.08,139.936,283.87,139.936z"/>
	<path style="fill:#3A3847;" d="M227.896,139.936c-2.21,0-3.998-1.788-3.998-3.998v-87.96c0-2.21,1.788-3.998,3.998-3.998
		s3.998,1.788,3.998,3.998v87.96C231.894,138.148,230.106,139.936,227.896,139.936z"/>
	<path style="fill:#3A3847;" d="M283.87,51.976h-55.975c-2.21,0-3.998-1.788-3.998-3.998s1.788-3.998,3.998-3.998h55.975
		c2.21,0,3.998,1.788,3.998,3.998S286.08,51.976,283.87,51.976z"/>
	<path style="fill:#3A3847;" d="M255.883,91.958c-2.21,0-3.998-1.788-3.998-3.998V63.971c0-2.21,1.788-3.998,3.998-3.998
		c2.21,0,3.998,1.788,3.998,3.998V87.96C259.881,90.17,258.093,91.958,255.883,91.958z"/>
	<path style="fill:#3A3847;" d="M68.047,139.936c-2.21,0-3.998-1.788-3.998-3.998V31.986c0-2.21,1.788-3.998,3.998-3.998
		s3.998,1.788,3.998,3.998v103.952C72.045,138.148,70.257,139.936,68.047,139.936z"/>
	<path style="fill:#3A3847;" d="M115.946,139.936c-2.209,0-3.998-1.788-3.998-3.998V31.986c0-2.21,1.789-3.998,3.998-3.998
		c2.21,0,3.999,1.788,3.999,3.998v103.952C119.945,138.148,118.156,139.936,115.946,139.936z"/>
	<path style="fill:#3A3847;" d="M91.958,75.965c-6.614,0-11.995-5.38-11.995-11.994s5.381-11.995,11.995-11.995
		c6.614,0,11.995,5.381,11.995,11.995S98.572,75.965,91.958,75.965z M91.958,59.973c-2.206,0-3.998,1.792-3.998,3.998
		c0,2.206,1.792,3.998,3.998,3.998s3.999-1.792,3.999-3.998S94.164,59.973,91.958,59.973z"/>
	<path style="fill:#3A3847;" d="M91.958,115.946c-6.614,0-11.995-5.38-11.995-11.994s5.381-11.994,11.995-11.994
		c6.614,0,11.995,5.38,11.995,11.994S98.572,115.946,91.958,115.946z M91.958,99.954c-2.206,0-3.998,1.792-3.998,3.998
		s1.792,3.998,3.998,3.998s3.999-1.792,3.999-3.998S94.164,99.954,91.958,99.954z"/>
	<path style="fill:#3A3847;" d="M68.047,483.779c-2.21,0-3.998-1.788-3.998-3.998V295.864c0-2.21,1.788-3.998,3.998-3.998
		s3.998,1.788,3.998,3.998V479.78C72.045,481.99,70.257,483.779,68.047,483.779z"/>
	<path style="fill:#3A3847;" d="M115.946,483.779c-2.209,0-3.998-1.788-3.998-3.998V295.864c0-2.21,1.789-3.998,3.998-3.998
		c2.21,0,3.999,1.788,3.999,3.998V479.78C119.945,481.99,118.156,483.779,115.946,483.779z"/>
	<path style="fill:#3A3847;" d="M91.958,339.845c-6.614,0-11.995-5.381-11.995-11.995c0-6.613,5.381-11.994,11.995-11.994
		c6.614,0,11.995,5.381,11.995,11.994C103.952,334.464,98.572,339.845,91.958,339.845z M91.958,323.852
		c-2.206,0-3.998,1.796-3.998,3.998s1.792,3.998,3.998,3.998s3.999-1.796,3.999-3.998S94.164,323.852,91.958,323.852z"/>
	<path style="fill:#3A3847;" d="M91.958,379.826c-6.614,0-11.995-5.381-11.995-11.994c0-6.614,5.381-11.995,11.995-11.995
		c6.614,0,11.995,5.381,11.995,11.995C103.952,374.445,98.572,379.826,91.958,379.826z M91.958,363.834
		c-2.206,0-3.998,1.795-3.998,3.998c0,2.201,1.792,3.998,3.998,3.998s3.999-1.797,3.999-3.998
		C95.956,365.629,94.164,363.834,91.958,363.834z"/>
	<path style="fill:#3A3847;" d="M91.958,419.808c-6.614,0-11.995-5.38-11.995-11.994s5.381-11.995,11.995-11.995
		c6.614,0,11.995,5.381,11.995,11.995S98.572,419.808,91.958,419.808z M91.958,403.816c-2.206,0-3.998,1.796-3.998,3.998
		s1.792,3.998,3.998,3.998s3.999-1.796,3.999-3.998S94.164,403.816,91.958,403.816z"/>
	<path style="fill:#3A3847;" d="M91.958,459.789c-6.614,0-11.995-5.38-11.995-11.994s5.381-11.994,11.995-11.994
		c6.614,0,11.995,5.38,11.995,11.994S98.572,459.789,91.958,459.789z M91.958,443.797c-2.206,0-3.998,1.796-3.998,3.998
		s1.792,3.998,3.998,3.998s3.999-1.796,3.999-3.998S94.164,443.797,91.958,443.797z"/>
	<path style="fill:#3A3847;" d="M395.819,483.779c-2.21,0-3.998-1.788-3.998-3.998V295.864c0-2.21,1.788-3.998,3.998-3.998
		s3.998,1.788,3.998,3.998V479.78C399.817,481.99,398.029,483.779,395.819,483.779z"/>
	<path style="fill:#3A3847;" d="M443.797,483.779c-2.21,0-3.999-1.788-3.999-3.998V295.864c0-2.21,1.789-3.998,3.999-3.998
		s3.998,1.788,3.998,3.998V479.78C447.795,481.99,446.007,483.779,443.797,483.779z"/>
	<path style="fill:#3A3847;" d="M419.808,339.845c-6.614,0-11.994-5.381-11.994-11.995c0-6.613,5.38-11.994,11.994-11.994
		s11.994,5.381,11.994,11.994C431.802,334.464,426.422,339.845,419.808,339.845z M419.808,323.852c-2.241,0-3.998,1.757-3.998,3.998
		s1.757,3.998,3.998,3.998c2.202,0,3.998-1.796,3.998-3.998S422.01,323.852,419.808,323.852z"/>
	<path style="fill:#3A3847;" d="M419.808,379.826c-6.614,0-11.994-5.381-11.994-11.994c0-6.614,5.38-11.995,11.994-11.995
		s11.994,5.381,11.994,11.995C431.802,374.445,426.422,379.826,419.808,379.826z M419.808,363.834c-2.241,0-3.998,1.756-3.998,3.998
		c0,2.24,1.757,3.998,3.998,3.998c2.202,0,3.998-1.797,3.998-3.998C423.806,365.629,422.01,363.834,419.808,363.834z"/>
	<path style="fill:#3A3847;" d="M419.808,419.808c-6.614,0-11.994-5.38-11.994-11.994s5.38-11.995,11.994-11.995
		s11.994,5.381,11.994,11.995S426.422,419.808,419.808,419.808z M419.808,403.816c-2.241,0-3.998,1.757-3.998,3.998
		s1.757,3.998,3.998,3.998c2.202,0,3.998-1.796,3.998-3.998S422.01,403.816,419.808,403.816z"/>
	<path style="fill:#3A3847;" d="M419.808,459.789c-6.614,0-11.994-5.38-11.994-11.994s5.38-11.994,11.994-11.994
		s11.994,5.38,11.994,11.994S426.422,459.789,419.808,459.789z M419.808,443.797c-2.241,0-3.998,1.757-3.998,3.998
		s1.757,3.998,3.998,3.998c2.202,0,3.998-1.796,3.998-3.998S422.01,443.797,419.808,443.797z"/>
	<path style="fill:#3A3847;" d="M395.897,139.936c-2.21,0-3.998-1.788-3.998-3.998V31.986c0-2.21,1.788-3.998,3.998-3.998
		s3.998,1.788,3.998,3.998v103.952C399.895,138.148,398.107,139.936,395.897,139.936z"/>
	<path style="fill:#3A3847;" d="M443.797,139.936c-2.21,0-3.999-1.788-3.999-3.998V31.986c0-2.21,1.789-3.998,3.999-3.998
		s3.998,1.788,3.998,3.998v103.952C447.795,138.148,446.007,139.936,443.797,139.936z"/>
	<path style="fill:#3A3847;" d="M419.808,75.965c-6.614,0-11.994-5.38-11.994-11.994s5.38-11.995,11.994-11.995
		s11.994,5.381,11.994,11.995S426.422,75.965,419.808,75.965z M419.808,59.973c-2.202,0-3.998,1.792-3.998,3.998
		c0,2.206,1.796,3.998,3.998,3.998s3.998-1.792,3.998-3.998S422.01,59.973,419.808,59.973z"/>
	<path style="fill:#3A3847;" d="M419.808,115.946c-6.614,0-11.994-5.38-11.994-11.994s5.38-11.994,11.994-11.994
		s11.994,5.38,11.994,11.994S426.422,115.946,419.808,115.946z M419.808,99.954c-2.202,0-3.998,1.792-3.998,3.998
		s1.796,3.998,3.998,3.998s3.998-1.792,3.998-3.998S422.01,99.954,419.808,99.954z"/>
</g>
<g>
</g>
<g>
</g>
<g>
</g>
<g>
</g>
<g>
</g>
<g>
</g>
<g>
</g>
<g>
</g>
<g>
</g>
<g>
</g>
<g>
</g>
<g>
</g>
<g>
</g>
<g>
</g>
<g>
</g>
</svg>
