<?xml version="1.0" encoding="iso-8859-1"?>
<!-- Generator: Adobe Illustrator 19.0.0, SVG Export Plug-In . SVG Version: 6.00 Build 0)  -->
<svg version="1.1" id="Capa_1" xmlns="http://www.w3.org/2000/svg" xmlns:xlink="http://www.w3.org/1999/xlink" x="0px" y="0px"
	 viewBox="0 0 511.999 511.999" style="enable-background:new 0 0 511.999 511.999;" xml:space="preserve">
<g>
	<path style="fill:#1138F7;" d="M255.443,511.999c-46.666,0-92.372-12.818-132.852-37.601l-95.613,26.105
		c-8.019,2.133-16.593-0.469-21.947-6.846c-5.353-6.377-6.505-15.292-2.965-22.8c20.411-43.339,23.887-92.414,9.79-138.205
		c-3.348-10.664-6.057-21.776-7.998-32.888c-11.709-67.354,3.54-135.241,42.869-191.142c39.35-55.943,98.13-93.161,165.484-104.87
		c0.427-0.064,0.853-0.128,1.28-0.171C277.88-7.252,343.251,6.675,397.68,42.826c56.924,37.857,95.699,95.613,109.199,162.626
		c13.479,67.034,0.064,135.284-37.772,192.208s-95.592,95.72-162.626,109.199C289.461,510.293,272.399,511.999,255.443,511.999z
		 M126.068,430.015c4.159,0,8.275,1.216,11.816,3.562c47.433,31.544,104.294,42.677,160.173,31.501
		c55.837-11.24,103.974-43.573,135.518-91.028c31.544-47.433,42.741-104.315,31.501-160.152S421.524,109.924,374.07,78.38
		C328.492,48.094,273.7,36.513,219.719,45.812c-0.384,0.064-0.768,0.128-1.152,0.171c-55.73,9.939-104.315,40.886-136.926,87.189
		c-32.802,46.58-45.493,103.142-35.724,159.299c1.6,9.256,3.86,18.513,6.676,27.513c12.989,42.208,13.799,86.613,2.773,128.565
		l65.114-17.766C122.293,430.271,124.191,430.015,126.068,430.015z"/>
	<path style="fill:#1138F7;" d="M255.955,296.715c-11.773,0-21.328-9.534-21.328-21.328V147.419
		c0-11.773,9.555-21.328,21.328-21.328s21.328,9.555,21.328,21.328v127.968C277.283,287.181,267.728,296.715,255.955,296.715z"/>
	<path style="fill:#1138F7;" d="M255.955,383.946c-5.759,0-11.091-2.154-15.143-6.185c-4.052-4.052-6.185-9.384-6.185-15.143
		c0-2.773,0.64-5.545,1.706-8.105c1.066-2.559,2.559-4.905,4.479-7.038c1.066-0.853,2.133-1.92,3.199-2.559
		c1.28-0.853,2.559-1.493,3.839-1.92c1.28-0.64,2.559-1.066,4.052-1.301c6.825-1.472,14.29,0.853,19.195,5.78
		c1.92,2.133,3.412,4.479,4.479,7.038c1.066,2.559,1.706,5.332,1.706,8.105c0,5.759-2.133,11.091-6.185,15.143
		c-2.133,1.92-4.479,3.412-7.038,4.479C261.5,383.306,258.728,383.946,255.955,383.946z"/>
</g>
<g>
</g>
<g>
</g>
<g>
</g>
<g>
</g>
<g>
</g>
<g>
</g>
<g>
</g>
<g>
</g>
<g>
</g>
<g>
</g>
<g>
</g>
<g>
</g>
<g>
</g>
<g>
</g>
<g>
</g>
</svg>
